# xmcd CD database file
#
# Track frame offsets:
#	150
#	10782
#	24135
#	32657
#	42752
#	53685
#	85522
#	94960
#	104370
#	115407
#	142125
#	160159
#
# Disc length: 2282 seconds
#
# Revision: 6
# Processed by: cddbd v1.5.1PL0 Copyright (c) Steve Scherf et al.
# Submitted via: CDex 1.51
#
DISCID=8b08e80c
DTITLE=Various Artist - Dinner At Eight, Second Course
DYEAR=2000
DGENRE=Jazz
TTITLE0=Nancy Wilson - The Best is yet to Come
TTITLE1=Sarah Vaughan - Witchcraft
TTITLE2=Nat King Cole - Almost like beeing in Love
TTITLE3=Dinah Washington - Romance in the Dark
TTITLE4=Dean Martin - Return to Me (Ritorna Me)
TTITLE5=Ella Fitzgerald - Bewitched, Bothered and Bewildered
TTITLE6=Bobby Darin - Call Me Irresponsible
TTITLE7=Julie London - Desafinado
TTITLE8=Peggy Lee - Why don't you do right
TTITLE9=Steve Czarnecki's Soul Jazz Quintet - Fly Me to the Moon
TTITLE10=Ella Fitzgerald and Louis Armstrong - Our Love is here to Stay
TTITLE11=Sam Butera And The Witnesses - French Poodle
EXTD=YEAR: 2000
EXTT0=
EXTT1=
EXTT2=
EXTT3=
EXTT4=
EXTT5=
EXTT6=
EXTT7=
EXTT8=
EXTT9=
EXTT10=
EXTT11=
PLAYORDER=
